<svg width="235" height="60" viewBox="0 0 235 60" fill="none" xmlns="http://www.w3.org/2000/svg">
<g clip-path="url(#clip0_505_3886)">
<path d="M6.97693 47.3242C7.9552 49.3218 9.30973 50.9049 11.019 52.0843C12.739 53.2637 14.7601 54.1137 17.1036 54.6237C19.4472 55.1337 21.952 55.3887 24.6181 55.3887C26.1446 55.3887 27.8001 55.1762 29.6062 54.7406C31.4014 54.3156 33.0785 53.6249 34.6265 52.6793C36.1745 51.7337 37.4753 50.5224 38.5074 49.0455C39.5394 47.5686 40.0554 45.773 40.0554 43.6798C40.0554 42.0648 39.6899 40.6623 38.9481 39.4829C38.2171 38.3035 37.2603 37.3048 36.0886 36.4973C34.9168 35.6897 33.6267 35.031 32.2077 34.521C30.7887 34.011 29.4019 33.5966 28.0366 33.2672L15.0503 30.1222C13.3626 29.6972 11.7178 29.1553 10.1052 28.5072C8.49271 27.859 7.09518 26.9984 5.9019 25.9253C4.69788 24.8521 3.74111 23.5346 2.99934 21.9727C2.26833 20.4108 1.89207 18.4983 1.89207 16.2352C1.89207 14.8327 2.16082 13.1964 2.70909 11.3051C3.25735 9.42447 4.27862 7.65008 5.7729 5.97131C7.26718 4.30317 9.33123 2.89003 11.9435 1.73189C14.5558 0.573756 17.9099 0 21.995 0C24.8761 0 27.6281 0.371879 30.2512 1.12626C32.8635 1.88064 35.1533 3.00691 37.1098 4.51567C39.0664 6.02444 40.6359 7.89446 41.8077 10.1257C42.9794 12.357 43.56 14.9602 43.56 17.9139H38.0021C37.8946 15.7039 37.3893 13.7808 36.4863 12.1445C35.5833 10.5082 34.4115 9.12697 32.971 8.02196C31.5305 6.91695 29.8642 6.08819 27.9829 5.51443C26.1016 4.9513 24.1343 4.66442 22.0595 4.66442C20.1567 4.66442 18.3184 4.8663 16.5446 5.27005C14.7708 5.67381 13.2228 6.32194 11.8898 7.20383C10.5568 8.09633 9.48173 9.2651 8.66471 10.7207C7.8477 12.1764 7.43919 13.9826 7.43919 16.1289C7.43919 17.4783 7.66494 18.6471 8.13795 19.6458C8.60021 20.6446 9.24522 21.4946 10.0622 22.1852C10.8793 22.8865 11.8145 23.4496 12.8788 23.8852C13.9431 24.3209 15.0718 24.6715 16.2651 24.9371L30.4769 28.4115C32.541 28.9534 34.4975 29.6122 36.3143 30.3878C38.1418 31.1635 39.7436 32.141 41.1304 33.2991C42.5172 34.4572 43.6137 35.8704 44.3985 37.5385C45.1832 39.2067 45.581 41.2254 45.581 43.5948C45.581 44.243 45.5165 45.1036 45.3767 46.1767C45.237 47.2499 44.9145 48.3974 44.3985 49.6086C43.8825 50.8199 43.1407 52.0418 42.1947 53.2849C41.2379 54.5281 39.9371 55.6437 38.2708 56.6318C36.6046 57.6306 34.5513 58.4381 32.1002 59.0544C29.6492 59.6706 26.7036 59.9788 23.2743 59.9788C19.8449 59.9788 16.6521 59.5856 13.7173 58.81C10.7718 58.0344 8.26695 56.8337 6.20291 55.2187C4.12812 53.6037 2.53708 51.5318 1.41906 49.003C0.344036 46.4849 -0.128975 43.4461 0.0322789 39.8867H5.59015C5.5364 42.8511 5.99866 45.3267 6.97693 47.3136V47.3242Z" fill="black"/>
<path d="M60.5669 1.21143L94.5591 49.9807H94.7204V1.21143H100.278V58.8633H94.0646L60.0831 10.094H59.9219V58.8633H54.364V1.21143H60.5776H60.5669Z" fill="black"/>
<path d="M117.93 1.21143V58.8633H112.372V1.21143H117.93Z" fill="black"/>
<path d="M155.997 1.21143C158.609 1.21143 160.985 1.57268 163.103 2.30581C165.231 3.02832 167.048 4.11208 168.574 5.53585C170.101 6.95961 171.273 8.70213 172.09 10.7421C172.907 12.7928 173.315 15.0984 173.315 17.691C173.315 20.2835 172.907 22.5891 172.09 24.6398C171.273 26.6904 170.101 28.4223 168.574 29.8461C167.048 31.2699 165.22 32.3536 163.103 33.0761C160.974 33.7986 158.609 34.1705 155.997 34.1705H135.657V58.8845H130.099V1.21143H155.997ZM154.771 29.4742C158.641 29.4742 161.77 28.5073 164.167 26.5629C166.564 24.6292 167.757 21.6648 167.757 17.6803C167.757 13.6959 166.553 10.7315 164.167 8.79775C161.77 6.86398 158.641 5.88647 154.771 5.88647H135.657V29.4742H154.771Z" fill="black"/>
<path d="M180.346 1.21143H192.107V58.8633H180.346V1.21143Z" fill="black"/>
<path d="M235 10.7421H222.25V58.8633H210.49V10.7421H197.74V1.21143H235V10.7421Z" fill="black"/>
</g>
<defs>
<clipPath id="clip0_505_3886">
<rect width="235" height="60" fill="white"/>
</clipPath>
</defs>
</svg>
