<svg width="16" height="20" viewBox="0 0 16 20" fill="none" xmlns="http://www.w3.org/2000/svg">
<path d="M10.7129 3.08594C10.0586 3.87695 8.96484 4.46289 8.0957 4.46289C7.98828 4.46289 7.89062 4.44336 7.83203 4.43359C7.82227 4.38477 7.79297 4.23828 7.79297 4.08203C7.79297 3.08594 8.30078 2.08984 8.85742 1.46484C9.55078 0.644531 10.7227 0.0390625 11.6992 0C11.7188 0.107422 11.7285 0.244141 11.7285 0.380859C11.7285 1.37695 11.3086 2.36328 10.7129 3.08594ZM11.3965 4.66797C11.9434 4.66797 13.9258 4.72656 15.2246 6.5918C15.1074 6.67969 13.1445 7.79297 13.1445 10.2734C13.1445 13.1348 15.6445 14.1602 15.7227 14.1797C15.7129 14.248 15.3223 15.5664 14.4043 16.9238C13.5742 18.1055 12.7051 19.3066 11.3965 19.3066C10.0781 19.3066 9.73633 18.5352 8.23242 18.5352C6.74805 18.5352 6.2207 19.3262 5.0293 19.3262C3.81836 19.3262 2.97852 18.2227 2.02148 16.875C0.898438 15.2832 0 12.8125 0 10.4688C0 6.71875 2.44141 4.72656 4.85352 4.72656C6.12305 4.72656 7.17773 5.55664 7.98828 5.55664C8.75 5.55664 9.94141 4.66797 11.3965 4.66797Z" fill="black"/>
</svg>
