<svg width="24" height="24" viewBox="0 0 24 24" fill="none" xmlns="http://www.w3.org/2000/svg">
<g id="Edit Square">
<g id="Iconly/Light-Outline/Edit-Square">
<g id="Edit-Square">
<path id="Combined-Shape" fill-rule="evenodd" clip-rule="evenodd" d="M11.492 2.0364C11.906 2.0364 12.242 2.3724 12.242 2.7864C12.242 3.2004 11.906 3.5364 11.492 3.5364H7.753C5.169 3.5364 3.5 5.3064 3.5 8.0454V16.3594C3.5 19.0984 5.169 20.8684 7.753 20.8684H16.577C19.161 20.8684 20.831 19.0984 20.831 16.3594V12.3314C20.831 11.9174 21.167 11.5814 21.581 11.5814C21.995 11.5814 22.331 11.9174 22.331 12.3314V16.3594C22.331 19.9534 20.018 22.3684 16.577 22.3684H7.753C4.312 22.3684 2 19.9534 2 16.3594V8.0454C2 4.4514 4.312 2.0364 7.753 2.0364H11.492ZM20.2016 2.915L21.4186 4.132C22.0116 4.724 22.3376 5.511 22.3366 6.349C22.3366 7.187 22.0106 7.973 21.4186 8.564L13.9096 16.073C13.3586 16.624 12.6246 16.928 11.8446 16.928H8.0986C7.8966 16.928 7.7026 16.846 7.5616 16.701C7.4206 16.557 7.3436 16.362 7.3486 16.159L7.4426 12.38C7.4616 11.628 7.7646 10.921 8.2966 10.388H8.2976L15.7706 2.915C16.9926 1.695 18.9796 1.695 20.2016 2.915ZM15.155 5.651L9.3576 11.449C9.0986 11.708 8.9516 12.052 8.9426 12.417L8.8676 15.428H11.8446C12.2246 15.428 12.5806 15.281 12.8496 15.012L18.682 9.178L15.155 5.651ZM16.8306 3.976L16.215 4.59L19.742 8.118L20.3586 7.503C20.6666 7.195 20.8366 6.785 20.8366 6.349C20.8366 5.912 20.6666 5.501 20.3586 5.193L19.1416 3.976C18.5046 3.341 17.4686 3.341 16.8306 3.976Z" fill="#111111"/>
</g>
</g>
</g>
</svg>
