<svg width="16" height="16" viewBox="0 0 16 16" fill="none" xmlns="http://www.w3.org/2000/svg">
<path fill-rule="evenodd" clip-rule="evenodd" d="M15.68 8.18178C15.68 7.6145 15.6291 7.06905 15.5346 6.54541H8V9.63996H12.3055C12.12 10.64 11.5564 11.4872 10.7091 12.0545V14.0618H13.2946C14.8073 12.6691 15.68 10.6181 15.68 8.18178Z" fill="black"/>
<path fill-rule="evenodd" clip-rule="evenodd" d="M7.99969 16C10.1597 16 11.9709 15.2836 13.2946 14.0618L10.7091 12.0545C9.99273 12.5345 9.07606 12.8182 7.99969 12.8182C5.91605 12.8182 4.15241 11.4109 3.52332 9.52002H0.850586V11.5928C2.16695 14.2073 4.87241 16 7.99969 16Z" fill="black"/>
<path fill-rule="evenodd" clip-rule="evenodd" d="M3.52332 9.52002C3.36332 9.04002 3.27273 8.52724 3.27273 7.99996C3.27273 7.47269 3.36364 6.95996 3.52364 6.47996V4.40723H0.850911C0.309092 5.48723 0 6.70905 0 7.99996C0 9.29087 0.308767 10.5127 0.850586 11.5928L3.52332 9.52002Z" fill="black"/>
<path fill-rule="evenodd" clip-rule="evenodd" d="M7.99969 3.18183C9.17424 3.18183 10.2288 3.58546 11.0579 4.37819L13.3524 2.08364C11.967 0.792729 10.1561 0 7.99969 0C4.87241 0 2.16728 1.79268 0.850911 4.40723L3.52364 6.47996C4.15274 4.58904 5.91605 3.18183 7.99969 3.18183Z" fill="black"/>
</svg>
